<?xml version="1.0" encoding="UTF-8"?>
<svg xmlns="http://www.w3.org/2000/svg" xmlns:xlink="http://www.w3.org/1999/xlink" width="30px" height="30px" viewBox="0 0 30 30" version="1.1">
<g id="surface1">
<path style=" stroke:none;fill-rule:nonzero;fill:rgb(92.941176%,92.941176%,92.941176%);fill-opacity:1;" d="M 0 30 L 2.070312 22.5 C 0.722656 20.171875 0 17.585938 0 14.898438 C 0 6.722656 6.722656 0 14.949219 0 C 23.171875 0 30 6.722656 30 14.898438 C 30 23.070312 23.171875 30 14.949219 30 C 12.363281 30 9.878906 29.171875 7.65625 27.929688 Z M 0 30 "/>
<path style=" stroke:none;fill-rule:nonzero;fill:rgb(33.333333%,80.392157%,42.352941%);fill-opacity:1;" d="M 8.070312 25.242188 L 8.535156 25.5 C 10.449219 26.691406 12.671875 27.414062 15 27.414062 C 21.777344 27.414062 27.414062 21.777344 27.414062 14.898438 C 27.414062 8.015625 21.777344 2.585938 14.949219 2.585938 C 8.121094 2.585938 2.585938 8.070312 2.585938 14.898438 C 2.585938 17.277344 3.257812 19.601562 4.5 21.570312 L 4.808594 22.035156 L 3.621094 26.378906 Z M 8.070312 25.242188 "/>
<path style=" stroke:none;fill-rule:nonzero;fill:rgb(99.607843%,99.607843%,99.607843%);fill-opacity:1;" d="M 10.964844 7.964844 L 9.984375 7.914062 C 9.671875 7.914062 9.363281 8.015625 9.15625 8.222656 C 8.691406 8.636719 7.914062 9.414062 7.707031 10.449219 C 7.34375 12 7.914062 13.863281 9.257812 15.722656 C 10.605469 17.585938 13.191406 20.585938 17.742188 21.878906 C 19.191406 22.292969 20.328125 22.035156 21.257812 21.464844 C 21.984375 21 22.449219 20.277344 22.605469 19.5 L 22.757812 18.777344 C 22.808594 18.570312 22.707031 18.308594 22.5 18.207031 L 19.242188 16.707031 C 19.035156 16.601562 18.777344 16.65625 18.621094 16.863281 L 17.328125 18.515625 C 17.222656 18.621094 17.070312 18.671875 16.914062 18.621094 C 16.035156 18.308594 13.085938 17.070312 11.484375 13.964844 C 11.429688 13.808594 11.429688 13.65625 11.535156 13.550781 L 12.777344 12.15625 C 12.878906 12 12.929688 11.792969 12.878906 11.636719 L 11.378906 8.277344 C 11.328125 8.121094 11.171875 7.964844 10.964844 7.964844 "/>
</g>
</svg>
